/* XPM */
static char *dummy[]={
"128 64 2 1",
"# c #000000",
". c #ffffff",
"................................................................................................................................",
".###############################################################################################################..#############.",
".###############################################################################################################..#############.",
".###############################################################################################################..#############.",
".###############################################################################################################..#############.",
".#################.##############.##############.##############.##############.##############.##################..#############.",
".########....#####.####..###..###.####......####.####..###..###.####......####.####......####.#####....#########..#############.",
".#######..##..####.####...#...###.######..######.####..###..###.######..######.####..########.####..##..########..#############.",
".#######..########.####.......###.######..######.####..###..###.######..######.####..########.####..############..#############.",
".########....#####.####..#.#..###.######..######.####..#.#..###.######..######.####....######.#####....#########..#############.",
".###########..####.####..###..###.######..######.####.......###.######..######.####..########.########..########..#############.",
".#######..##..####.####..###..###.######..######.####...#...###.######..######.####..########.####..##..########..#############.",
".########....#####.####..###..###.######..######.####..###..###.######..######.####..########.#####....#########..######.######.",
".#################.##############.##############.##############.##############.##############.##################..######..#####.",
".##..........................................................................................................###..##.....#.####.",
".#################.##############.##############.##############.##############.##############.##################..##.######.###.",
".#################.##############.##############.##############.##############.##############.##################..##.#######.##.",
".#################.##############.##############.##############.##############.##############.##################..##.######.###.",
".#################.##############.##############.##############.##############.##############.##################..##.....#.####.",
".#################.##############.##############.##############.##############.##############.##################..######..#####.",
".#################.##############.##############.##############.##############.##############.##################..######.######.",
".#################.##############.##############.##############.##############.##############.##################..#############.",
".#################.##############.##############.##############.##############.##############.##################..#############.",
".#################.##############.##############.##############.##############.##############.##################..#############.",
".#################.##############.##############.##############.##############.##############.##################..#############.",
".#################.##############.##############.##############.##############.##############.##################..#############.",
".#################.##############.##############.##############.##############.##############.##################..#############.",
".#################.##############.##############.##############.##############.##############.##################..#############.",
".#################.##############.##############.##############.##############.##############.##################..#############.",
".#################.##############.##############.##############.##############.##############.##################..#############.",
".###############################################################################################################..#############.",
".###############################################################################################################..#############.",
".#.............................................................................................................#..#############.",
".###############################################################################################################..#############.",
".###############################################################################################################..#############.",
".###############################################################################################################..#############.",
".###############################################################################################################..#############.",
".###############################################################################################################..#############.",
".###############################################################################################################..#############.",
".###############################################################################################################..#############.",
".###############################################################################################################..#############.",
".###############################################################################################################..#############.",
".###############################################################################################################..#############.",
".###############################################################################################################..#############.",
".###############################################################################################################..######.######.",
".#.............................................................................................................#..######.######.",
".###############################################################################################################..#####.#.#####.",
".####################################################.###################################...####################..####..#..####.",
".####..........################################.####...################################.......##################..##..#####..##.",
".#####........#################################..###.#.################################.#####.##################..####..#..####.",
".###............###############################.#.#.##.################################.#####.##################..#####.#.#####.",
".##.##........##.##############################.#..###.##.#############################.#####.##################..######.######.",
".##.##........##.##############################.#####.##..#############################.#####.##################..######.######.",
".##.##........##.##############################.##.##.#.#.#############################.#####.##################..#############.",
".###............##############################.###..##..#.#############################.#####.##################..#############.",
".######......#################################.##....####.#############################.#####.##################..#############.",
".#######....##################################.##....###.##############################.#####.##################..#############.",
".########..###################################..##..####.##############################.#####.##################..#############.",
".########..####################################.#######.###############################.#####.##################..#############.",
".########..####################################..####..################################.#####.##################..#############.",
".######......###################################..##..#################################.#####.##################..#############.",
".######......####################################....##################################.......##################..#############.",
".###############################################################################################################..#############.",
"................................................................................................................................"};
